<?xml version="1.0" ?>
<svg width="512" height="512" xmlns="http://www.w3.org/2000/svg" clip-rule="evenodd" fill-rule="evenodd" image-rendering="optimizeQuality" text-rendering="geometricPrecision" shape-rendering="geometricPrecision">
 <g>
  <path d="M448,512l-384,0c-35.328,0 -64,-28.672 -64,-64l0,-384c0,-35.328 28.672,-64 64,-64l384,0c35.328,0 64,28.672 64,64l0,384c0,35.328 -28.672,64 -64,64Z" id="Dark_Blue" style="fill:#23E839;fill-rule:nonzero;"/>
  <path id="svg_1" d="m226.09422,327.35661l59.52074,0l0,134.39846l-59.52074,0l0,-134.39846zm-137.59422,-137.75489l101.27765,0l-71.99849,-68.63885l39.83929,-40.95917l68.63804,70.55807l0,-100.31683l59.51753,0l0,100.31683l68.63724,-70.3974l39.80796,40.7985l-71.96475,68.47898l101.24551,-0.0008l0,56.6383l-101.82393,0l72.44917,70.3982l-39.71397,40.00077l-98.39601,-98.87882l-98.39681,98.87882l-39.83929,-39.83929l72.47729,-70.399l-101.75645,0l0,-56.6383z" fill-rule="nonzero" fill="#fff"/>
 </g>
</svg>