
<svg width="512" height="512" xmlns="http://www.w3.org/2000/svg">
 <g>
  <path d="M448,512l-384,0c-35.328,0 -64,-28.672 -64,-64l0,-384c0,-35.328 28.672,-64 64,-64l384,0c35.328,0 64,28.672 64,64l0,384c0,35.328 -28.672,64 -64,64Z" id="Dark_Blue" style="fill:#6034b2;fill-rule:nonzero;"/>
  <path id="svg_1" clip-rule="evenodd" fill-rule="evenodd" d="m150.84743,127.90835l-17.20698,43.96746l0,179.71258l61.17444,0l0,32.50326l34.41396,0l32.50326,-32.50326l49.71023,0l66.91721,-66.91721l0,-156.76283l-227.51211,0zm204.56236,145.29862l-38.23536,38.23536l-61.17444,0l-32.50326,32.50326l0,-32.50326l-51.62093,0l0,-160.5949l183.53398,0l0,122.35955zm-38.23536,-78.38141l0,66.84249l-22.93908,0l0,-66.84249l22.93908,0zm-61.17444,0l0,66.84249l-22.93908,0l0,-66.84249l22.93908,0z" style="fill:#ffffff;"/>
 </g>
</svg>